<?xml version="1.0" standalone="no"?>
<!DOCTYPE svg PUBLIC "-//W3C//DTD SVG 20010904//EN"
 "http://www.w3.org/TR/2001/REC-SVG-20010904/DTD/svg10.dtd">
<svg version="1.0" xmlns="http://www.w3.org/2000/svg"
 width="225.000000pt" height="225.000000pt" viewBox="0 0 225.000000 225.000000"
 preserveAspectRatio="xMidYMid meet">

<g transform="translate(0.000000,225.000000) scale(0.100000,-0.100000)"
fill="#000000" stroke="none">
<path d="M937 1945 c-43 -7 -115 -26 -160 -40 -547 -181 -867 -738 -751 -1305
21 -102 90 -276 117 -295 32 -22 1931 -23 1964 0 46 32 117 256 135 421 61
585 -354 1125 -936 1219 -109 18 -263 18 -369 0z m123 -210 c0 -94 16 -125 65
-125 49 0 65 31 65 126 l0 86 53 -7 c108 -14 307 -76 307 -95 0 -5 -16 -36
-35 -69 -19 -32 -35 -71 -35 -85 0 -35 33 -66 69 -66 32 0 57 26 101 108 13
23 26 42 30 42 26 0 259 -233 260 -260 0 -3 -32 -22 -70 -43 -51 -28 -72 -45
-76 -64 -10 -38 7 -76 40 -88 24 -8 38 -4 97 28 38 20 73 37 78 37 15 0 70
-164 86 -257 8 -47 15 -87 15 -88 0 -2 -39 -5 -86 -6 -76 -4 -88 -7 -105 -28
-25 -30 -24 -66 1 -91 17 -17 33 -20 105 -20 l85 0 -6 -42 c-14 -93 -35 -182
-57 -236 l-22 -57 -898 -3 -898 -2 -19 42 c-22 50 -56 183 -64 251 l-6 47 85
0 c72 0 88 3 105 20 25 25 26 61 1 91 -17 21 -29 24 -105 28 -47 1 -86 4 -86
6 0 1 7 41 15 88 16 93 71 257 86 257 5 0 40 -17 78 -37 59 -32 73 -36 97 -28
33 12 50 50 40 88 -4 19 -25 36 -76 64 -38 21 -70 40 -70 43 1 27 234 260 260
260 4 0 17 -19 30 -42 44 -82 69 -108 101 -108 36 0 69 31 69 66 0 14 -16 53
-35 85 -19 33 -35 64 -35 68 0 24 238 94 338 100 21 1 22 -2 22 -84z"/>
<path d="M1515 1231 c-42 -25 -216 -162 -366 -287 -135 -111 -155 -140 -146
-201 16 -96 133 -134 201 -66 46 45 356 538 356 565 0 12 -12 9 -45 -11z"/>
</g>
</svg>
